<?xml version="1.0" standalone="no"?>
<!DOCTYPE svg PUBLIC "-//W3C//DTD SVG 20010904//EN"
 "http://www.w3.org/TR/2001/REC-SVG-20010904/DTD/svg10.dtd">
<svg version="1.0" xmlns="http://www.w3.org/2000/svg"
 width="640.000000pt" height="640.000000pt" viewBox="0 0 640.000000 640.000000"
 preserveAspectRatio="xMidYMid meet">
<metadata>
Created by potrace 1.14, written by Peter Selinger 2001-2017
</metadata>
<g transform="translate(0.000000,640.000000) scale(0.100000,-0.100000)"
fill="#000000" stroke="none">
<path d="M735 5777 c-67 -23 -176 -114 -191 -159 -3 -10 -10 -18 -15 -18 -5 0
-9 -4 -9 -8 0 -5 -24 -49 -54 -99 -77 -127 -169 -312 -214 -429 -10 -27 -23
-58 -27 -69 -5 -11 -9 -23 -9 -27 -1 -3 -4 -10 -9 -14 -4 -4 -7 -13 -7 -20 0
-7 -5 -25 -12 -41 -6 -15 -12 -30 -13 -33 0 -3 -11 -39 -24 -80 -13 -41 -24
-82 -26 -90 -2 -8 -8 -35 -15 -60 -12 -46 -17 -67 -26 -110 -3 -14 -9 -44 -15
-68 -10 -47 -20 -107 -34 -217 -16 -121 -20 -208 -20 -400 0 -228 5 -306 30
-472 27 -176 33 -206 82 -383 18 -69 36 -132 38 -140 9 -36 74 -210 99 -263
14 -32 26 -60 26 -62 0 -7 106 -221 128 -260 48 -85 173 -281 199 -315 6 -8
51 -67 100 -129 79 -103 312 -350 403 -427 128 -108 258 -206 365 -275 108
-70 130 -83 135 -82 3 1 12 -4 20 -12 26 -23 221 -120 350 -174 69 -29 133
-56 142 -62 10 -5 25 -9 33 -9 8 0 23 -4 33 -10 9 -5 64 -23 122 -40 58 -17
119 -35 135 -40 26 -7 144 -33 210 -45 11 -2 34 -7 50 -10 80 -15 100 -16 131
-11 47 9 98 65 117 128 15 49 19 148 16 423 0 11 0 219 0 462 0 277 -3 451 -9
465 -14 31 -55 86 -81 109 -18 15 -81 38 -149 55 -20 4 -100 32 -125 43 -155
68 -335 166 -335 183 0 4 -5 8 -11 8 -29 0 -263 213 -326 298 -15 20 -34 43
-41 51 -48 51 -160 243 -216 371 -36 84 -93 281 -101 350 -2 14 -6 40 -9 58
-5 27 -15 146 -19 222 -1 25 13 213 18 245 4 26 10 57 21 115 8 44 29 118 64
226 42 130 46 146 56 244 8 81 4 189 -10 250 -25 117 -59 186 -157 316 -98
130 -115 149 -229 264 -201 202 -348 287 -496 287 -33 0 -72 -4 -89 -10z"/>
<path d="M5475 5770 c-59 -20 -175 -80 -195 -100 -3 -3 -23 -18 -45 -34 -45
-33 -259 -248 -290 -291 -11 -16 -25 -33 -31 -39 -5 -6 -30 -38 -54 -71 -24
-33 -47 -62 -50 -65 -9 -7 -67 -118 -81 -155 -37 -100 -50 -285 -27 -403 4
-26 11 -59 13 -73 3 -15 20 -73 39 -130 19 -57 38 -117 42 -134 4 -16 8 -34
10 -40 16 -65 22 -100 18 -107 -3 -4 -2 -8 3 -8 12 0 17 -84 17 -270 1 -181
-4 -227 -35 -370 -16 -72 -60 -214 -70 -224 -5 -6 -9 -16 -9 -23 0 -39 -143
-296 -214 -384 -12 -14 -32 -40 -46 -59 -116 -153 -359 -343 -563 -440 -103
-49 -302 -120 -335 -120 -22 0 -85 -60 -118 -113 l-24 -37 2 -663 3 -662 24
-47 c15 -29 40 -58 64 -74 45 -29 65 -29 217 0 39 7 123 25 148 31 12 3 31 7
41 9 24 6 140 36 161 43 8 2 16 4 18 3 1 0 16 7 32 15 17 9 30 12 30 8 0 -4 5
-2 12 5 7 7 19 12 28 12 15 0 102 32 175 64 17 8 64 28 105 46 82 35 250 122
292 152 14 10 29 18 32 18 9 0 90 54 94 63 2 4 8 7 14 7 9 0 202 135 235 164
20 18 38 33 100 82 32 26 119 109 193 184 142 144 163 168 220 240 19 25 43
54 53 65 32 34 223 327 258 395 19 36 37 67 40 70 6 5 89 179 87 183 0 1 9 21
20 43 62 121 174 473 205 644 3 14 8 36 11 50 6 24 12 65 21 139 2 19 7 50 10
70 19 119 27 520 13 676 -8 81 -25 214 -34 257 -2 13 -7 39 -10 58 -15 95 -73
325 -103 410 -5 14 -21 59 -36 100 -46 128 -134 323 -206 456 -169 309 -249
386 -404 390 -45 1 -88 -4 -120 -16z"/>
<path d="M3058 5025 c-2 -2 -23 -6 -48 -10 -60 -8 -152 -32 -225 -57 -55 -19
-213 -94 -225 -108 -3 -3 -30 -22 -61 -42 -60 -41 -190 -163 -229 -216 -14
-19 -30 -39 -35 -45 -6 -7 -22 -30 -35 -52 -13 -22 -26 -42 -29 -45 -6 -5 -50
-93 -74 -150 -58 -133 -88 -292 -88 -463 -1 -87 3 -121 18 -192 3 -16 7 -39 9
-50 20 -134 129 -359 237 -490 163 -196 400 -344 642 -400 104 -24 147 -28
270 -28 156 0 247 14 384 60 69 23 201 85 201 95 0 4 9 8 19 8 11 0 21 3 23 8
2 4 26 23 53 42 215 149 384 389 453 641 57 205 59 409 8 612 -14 53 -32 113
-42 134 -56 123 -77 165 -117 224 -25 36 -53 77 -63 90 -37 46 -197 199 -210
199 -7 0 -14 4 -16 8 -4 9 -63 52 -97 70 -91 48 -123 63 -181 85 -61 23 -151
48 -230 63 -36 6 -306 14 -312 9z"/>
</g>
</svg>
