<svg id="Group_4" data-name="Group 4" xmlns="http://www.w3.org/2000/svg" xmlns:xlink="http://www.w3.org/1999/xlink" width="398" height="64.547" viewBox="0 0 398 64.547">
  <defs>
    <clipPath id="clip-path">
      <rect id="Rectangle_1" data-name="Rectangle 1" width="398" height="64.547" fill="none"/>
    </clipPath>
  </defs>
  <g id="Group_1" data-name="Group 1" transform="translate(0 0)" clip-path="url(#clip-path)">
    <path id="Path_1" data-name="Path 1" d="M0,27.6V.394H8.615a8.878,8.878,0,0,1,6.2,2.1,7.238,7.238,0,0,1,2.314,5.639,7.544,7.544,0,0,1-1.186,4.2A6.784,6.784,0,0,1,12.7,14.989a16.514,16.514,0,0,1-5.911.827H3.908V27.6ZM7.934,3.856H3.908v8.5H8.168a5.4,5.4,0,0,0,3.656-1.118,4.014,4.014,0,0,0,1.284-3.2q0-4.181-5.173-4.181" transform="translate(0 -0.083)" fill="#f27c00"/>
    <path id="Path_2" data-name="Path 2" d="M29.244,12.108v4.1l.195-.311q2.567-4.143,5.133-4.143a6.33,6.33,0,0,1,4.181,2.023l-1.867,3.111a5.243,5.243,0,0,0-3.422-1.751A3.655,3.655,0,0,0,30.5,16.775a6.134,6.134,0,0,0-1.258,3.87V30H25.685V12.108Z" transform="translate(-5.422 -2.482)" fill="#f27c00"/>
    <path id="Path_3" data-name="Path 3" d="M56.236,19.245v7.6q0,.914.622.914a4.287,4.287,0,0,0,2-.953v2.158a11.835,11.835,0,0,1-1.931,1.06,4.232,4.232,0,0,1-1.53.282q-2.274,0-2.683-1.789a7.7,7.7,0,0,1-4.8,1.75A4.238,4.238,0,0,1,44.8,29.036a4.187,4.187,0,0,1-1.244-3.1,4.363,4.363,0,0,1,1.212-3.024,8.24,8.24,0,0,1,3.455-2.11l4.531-1.556v-.953q0-3.228-3.228-3.228-2.9,0-5.639,2.995v-3.87a7.345,7.345,0,0,1,5.931-2.431,6.85,6.85,0,0,1,4.647,1.516,5.191,5.191,0,0,1,1.646,2.907,25.364,25.364,0,0,1,.123,3.063m-3.481,7.215V21.151l-2.372.914a7.9,7.9,0,0,0-2.554,1.449,2.611,2.611,0,0,0-.039,3.627,2.489,2.489,0,0,0,1.834.7,4.449,4.449,0,0,0,3.131-1.381" transform="translate(-9.194 -2.482)" fill="#f27c00"/>
    <path id="Path_4" data-name="Path 4" d="M78.609,12.2h4.524l-7.364,8.816,7.889,9.075H79.121L73.5,23.676l-5.309,6.417H63.745l7.533-9.065L63.745,12.2H68.2l5.3,6.139Z" transform="translate(-13.456 -2.576)" fill="#f27c00"/>
    <path id="Path_5" data-name="Path 5" d="M93.932,2.662a2.074,2.074,0,0,1,1.5.6,1.979,1.979,0,0,1,.622,1.478,2.018,2.018,0,0,1-.622,1.478,2.039,2.039,0,0,1-1.5.622,1.962,1.962,0,0,1-1.439-.632,2.029,2.029,0,0,1-.622-1.468,2.007,2.007,0,0,1,.622-1.449,1.962,1.962,0,0,1,1.439-.632m-1.75,7.526h3.539V28.079H92.182Z" transform="translate(-19.393 -0.562)" fill="#f27c00"/>
    <path id="Path_6" data-name="Path 6" d="M102.125,28.716V24.9a16.084,16.084,0,0,0,3.059,1.7,7.152,7.152,0,0,0,2.638.652,3.3,3.3,0,0,0,1.906-.544,1.565,1.565,0,0,0,.8-1.3,1.756,1.756,0,0,0-.519-1.293,11.885,11.885,0,0,0-2.223-1.487,15.679,15.679,0,0,1-4.479-3.257,4.643,4.643,0,0,1-1.063-2.947,4.12,4.12,0,0,1,1.608-3.364,6.323,6.323,0,0,1,4.129-1.3,11.382,11.382,0,0,1,5.387,1.478v3.5a10.774,10.774,0,0,0-5.154-1.906,2.873,2.873,0,0,0-1.665.438,1.343,1.343,0,0,0-.629,1.16,1.657,1.657,0,0,0,.57,1.187,9.867,9.867,0,0,0,2.016,1.361l1.264.72q4.473,2.528,4.473,5.6a4.471,4.471,0,0,1-1.717,3.607,6.774,6.774,0,0,1-4.427,1.41,10.771,10.771,0,0,1-2.839-.34,19.164,19.164,0,0,1-3.131-1.254" transform="translate(-21.557 -2.482)" fill="#f27c00"/>
    <path id="Path_7" data-name="Path 7" d="M121.073,18.385a5.466,5.466,0,0,1,2.087-4.521,8.94,8.94,0,0,1,5.711-1.663h7.371v2.762h-3.617a7.413,7.413,0,0,1,1.459,1.945,4.683,4.683,0,0,1,.408,2,5.366,5.366,0,0,1-.8,2.752,5.579,5.579,0,0,1-2.055,2.071,12.441,12.441,0,0,1-4.11,1.147q-2,.292-2,1.381a1.167,1.167,0,0,0,.745,1.021,11.9,11.9,0,0,0,2.716.827,29.775,29.775,0,0,1,4.233,1.128,5.509,5.509,0,0,1,1.7,1.167,4.375,4.375,0,0,1,1.284,3.228,4.675,4.675,0,0,1-2.268,4.064,10.723,10.723,0,0,1-6.055,1.517,10.868,10.868,0,0,1-6.119-1.527,4.7,4.7,0,0,1-2.282-4.094q0-3.636,4.493-4.686-1.789-1.148-1.789-2.275a2.055,2.055,0,0,1,.772-1.556,4.7,4.7,0,0,1,2.068-1.031q-3.948-1.75-3.948-5.659m5.814,12.543a5.152,5.152,0,0,0-2.924.759,2.254,2.254,0,0,0-1.141,1.945q0,2.761,4.979,2.761a7.845,7.845,0,0,0,3.642-.69,2.143,2.143,0,0,0,1.3-1.955q0-1.244-1.634-2.031a9.739,9.739,0,0,0-4.22-.788m.836-15.654a3.408,3.408,0,0,0-2.45.972,3.126,3.126,0,0,0-1.011,2.334,2.959,2.959,0,0,0,.992,2.285,3.892,3.892,0,0,0,5.011-.02,3.179,3.179,0,0,0-.013-4.638,3.582,3.582,0,0,0-2.528-.933" transform="translate(-25.22 -2.576)" fill="#f27c00"/>
    <path id="Path_8" data-name="Path 8" d="M159.214,21.365H146.632a5.816,5.816,0,0,0,1.725,4.083,5.658,5.658,0,0,0,4.09,1.517,10.65,10.65,0,0,0,6.456-2.178v3.462a11.891,11.891,0,0,1-3.235,1.556,13.6,13.6,0,0,1-3.765.467,8.447,8.447,0,0,1-4.784-1.225,8.846,8.846,0,0,1-2.924-3.3,10,10,0,0,1-1.1-4.793,9.519,9.519,0,0,1,2.314-6.641,7.729,7.729,0,0,1,6.009-2.557,7.077,7.077,0,0,1,5.679,2.489,9.945,9.945,0,0,1,2.12,6.67Zm-12.5-2.12h9a4.94,4.94,0,0,0-1.264-3.267,4.06,4.06,0,0,0-3.034-1.148,4.37,4.37,0,0,0-3.124,1.148,5.679,5.679,0,0,0-1.582,3.267" transform="translate(-30.205 -2.482)" fill="#f27c00"/>
    <path id="Path_9" data-name="Path 9" d="M183.005,17v12.99h-3.559V20.032a7.819,7.819,0,0,0-.8-4.151,3.111,3.111,0,0,0-2.781-1.177,4.18,4.18,0,0,0-2.035.506A8.929,8.929,0,0,0,171.726,17v12.99h-3.539V12.1h3.539v2.353q2.7-2.7,5.29-2.7a5.812,5.812,0,0,1,5.27,3.228q2.839-3.266,5.931-3.267a5.457,5.457,0,0,1,4.285,1.906q1.683,1.905,1.686,5.814v10.56h-3.54v-10.6a5.52,5.52,0,0,0-.914-3.422,3.115,3.115,0,0,0-2.625-1.187,5.433,5.433,0,0,0-4.1,2.217" transform="translate(-35.502 -2.472)" fill="#f27c00"/>
    <path id="Path_10" data-name="Path 10" d="M222.318,21.365H209.736a5.816,5.816,0,0,0,1.725,4.083,5.658,5.658,0,0,0,4.091,1.517,10.65,10.65,0,0,0,6.456-2.178v3.462a11.891,11.891,0,0,1-3.235,1.556,13.6,13.6,0,0,1-3.765.467,8.447,8.447,0,0,1-4.784-1.225,8.847,8.847,0,0,1-2.924-3.3,10,10,0,0,1-1.1-4.793,9.519,9.519,0,0,1,2.314-6.641,7.729,7.729,0,0,1,6.009-2.557,7.077,7.077,0,0,1,5.679,2.489,9.945,9.945,0,0,1,2.12,6.67Zm-12.5-2.12h9a4.94,4.94,0,0,0-1.264-3.267,4.06,4.06,0,0,0-3.034-1.148,4.37,4.37,0,0,0-3.124,1.148,5.679,5.679,0,0,0-1.582,3.267" transform="translate(-43.526 -2.482)" fill="#f27c00"/>
    <path id="Path_11" data-name="Path 11" d="M233.253,2.662a2.076,2.076,0,0,1,1.5.6,1.979,1.979,0,0,1,.622,1.478,2.018,2.018,0,0,1-.622,1.478,2.041,2.041,0,0,1-1.5.622,1.962,1.962,0,0,1-1.439-.632,2.03,2.03,0,0,1-.622-1.468,2.007,2.007,0,0,1,.622-1.449,1.962,1.962,0,0,1,1.439-.632m-1.75,7.526h3.539V28.079H231.5Z" transform="translate(-48.802 -0.562)" fill="#f27c00"/>
    <path id="Path_12" data-name="Path 12" d="M246.074,12.108v2.275a7.116,7.116,0,0,1,5.387-2.626,5.933,5.933,0,0,1,3.111.865A5.7,5.7,0,0,1,256.763,15a11.446,11.446,0,0,1,.746,4.774V30H253.97V19.809a6.963,6.963,0,0,0-.836-3.919,3.2,3.2,0,0,0-2.8-1.176,5.1,5.1,0,0,0-4.259,2.509V30h-3.617V12.108Z" transform="translate(-51.18 -2.482)" fill="#f27c00"/>
    <path id="Path_13" data-name="Path 13" d="M266.688,28.716V24.9a16.084,16.084,0,0,0,3.059,1.7,7.152,7.152,0,0,0,2.638.652,3.3,3.3,0,0,0,1.906-.544,1.565,1.565,0,0,0,.8-1.3,1.756,1.756,0,0,0-.519-1.293,11.885,11.885,0,0,0-2.223-1.487,15.678,15.678,0,0,1-4.479-3.257,4.643,4.643,0,0,1-1.063-2.947,4.12,4.12,0,0,1,1.608-3.364,6.323,6.323,0,0,1,4.129-1.3,11.382,11.382,0,0,1,5.387,1.478v3.5a10.771,10.771,0,0,0-5.154-1.906,2.873,2.873,0,0,0-1.665.438,1.343,1.343,0,0,0-.629,1.16,1.657,1.657,0,0,0,.57,1.187,9.868,9.868,0,0,0,2.016,1.361l1.264.72q4.473,2.528,4.473,5.6a4.472,4.472,0,0,1-1.717,3.607,6.774,6.774,0,0,1-4.427,1.41,10.771,10.771,0,0,1-2.839-.34,19.165,19.165,0,0,1-3.131-1.254" transform="translate(-56.295 -2.482)" fill="#f27c00"/>
    <path id="Path_14" data-name="Path 14" d="M300.374,25.818v3.5a14.881,14.881,0,0,1-5.212.992,9.056,9.056,0,0,1-6.7-2.489,8.972,8.972,0,0,1-2.5-6.67,9.534,9.534,0,0,1,2.431-6.807,8.372,8.372,0,0,1,6.4-2.586,10.662,10.662,0,0,1,2.476.263,16.222,16.222,0,0,1,2.716.982v3.773a9.406,9.406,0,0,0-4.978-1.711,5.083,5.083,0,0,0-3.929,1.682,6.112,6.112,0,0,0-1.536,4.288A5.816,5.816,0,0,0,291.2,25.39,6.181,6.181,0,0,0,295.687,27a11.7,11.7,0,0,0,4.687-1.187" transform="translate(-60.363 -2.482)" fill="#f27c00"/>
    <path id="Path_15" data-name="Path 15" d="M309.234.444h3.539V12.073a6.847,6.847,0,0,1,5.5-2.7,5.89,5.89,0,0,1,3.208.895,5.411,5.411,0,0,1,2.107,2.47,12.209,12.209,0,0,1,.693,4.686v10.19h-3.539V16.546a4.849,4.849,0,0,0-.966-3.16,3.081,3.081,0,0,0-2.534-1.2,4.279,4.279,0,0,0-2.2.6,9.961,9.961,0,0,0-2.275,2V27.611h-3.539Z" transform="translate(-65.275 -0.094)" fill="#f27c00"/>
    <path id="Path_16" data-name="Path 16" d="M345.43,19.245v7.6q0,.914.622.914a4.287,4.287,0,0,0,2-.953v2.158a11.834,11.834,0,0,1-1.931,1.06,4.231,4.231,0,0,1-1.53.282q-2.274,0-2.683-1.789a7.7,7.7,0,0,1-4.8,1.75A4.238,4.238,0,0,1,334,29.036a4.187,4.187,0,0,1-1.244-3.1,4.363,4.363,0,0,1,1.212-3.024,8.241,8.241,0,0,1,3.455-2.11l4.531-1.556v-.953q0-3.228-3.228-3.228-2.9,0-5.639,2.995v-3.87a7.345,7.345,0,0,1,5.931-2.431,6.85,6.85,0,0,1,4.648,1.516,5.19,5.19,0,0,1,1.646,2.907,25.356,25.356,0,0,1,.123,3.063m-3.481,7.215V21.151l-2.372.914a7.9,7.9,0,0,0-2.555,1.449,2.611,2.611,0,0,0-.039,3.627,2.489,2.489,0,0,0,1.834.7,4.449,4.449,0,0,0,3.131-1.381" transform="translate(-70.24 -2.482)" fill="#f27c00"/>
    <path id="Path_17" data-name="Path 17" d="M355.949,9.626V8.557c0-2.878.609-5.024,1.841-6.437a5.624,5.624,0,0,1,4.4-2.12,11.909,11.909,0,0,1,2.625.35V3.812a4.777,4.777,0,0,0-1.633-.312,3.356,3.356,0,0,0-2.891,1.108,7.037,7.037,0,0,0-.8,3.948v1.07h3.19v3.19h-3.19v14.7h-3.539v-14.7h-2.567V9.626Z" transform="translate(-74.595 0)" fill="#f27c00"/>
    <path id="Path_18" data-name="Path 18" d="M365.559,14.053l6.651-6.534v3.694h5.659V14.4H372.21V23.16q0,3.068,2.547,3.067a7.9,7.9,0,0,0,4.026-1.264v3.306a8.935,8.935,0,0,1-4.453,1.147A5.9,5.9,0,0,1,370.285,28a4.032,4.032,0,0,1-.836-.962,5.125,5.125,0,0,1-.558-1.4,15.793,15.793,0,0,1-.22-3.3V14.4h-3.111Z" transform="translate(-77.165 -1.587)" fill="#f27c00"/>
    <path id="Path_19" data-name="Path 19" d="M171.692,42.513l.194.758L151.545,67.93h20.5v1.75H148.278l-.214-.6,20.367-24.814H149V42.513Z" transform="translate(-31.254 -8.974)" fill="#7982be"/>
    <path id="Path_20" data-name="Path 20" d="M196.428,70.169V67.213h-.078A8.462,8.462,0,0,1,193.8,69.76a6.628,6.628,0,0,1-3.339.758,6.492,6.492,0,0,1-4.764-1.867,7.111,7.111,0,0,1-1.886-5.29V52.278h1.906V63.324a5.417,5.417,0,0,0,1.361,3.909,4.684,4.684,0,0,0,3.539,1.419A5.718,5.718,0,0,0,193.8,67.8a9.609,9.609,0,0,0,2.632-2.955V52.278h1.905V70.169Zm-10.5-23.57a1.694,1.694,0,0,1,.518-1.245,1.653,1.653,0,0,1,1.231-.525,1.681,1.681,0,0,1,1.225.525,1.7,1.7,0,0,1,.525,1.245,1.794,1.794,0,0,1-1.751,1.75,1.65,1.65,0,0,1-1.231-.525,1.671,1.671,0,0,1-.518-1.225m7.039,0a1.7,1.7,0,0,1,.525-1.245,1.7,1.7,0,0,1,2.457,0,1.722,1.722,0,0,1,.518,1.245,1.7,1.7,0,0,1-.518,1.225,1.7,1.7,0,0,1-2.457,0,1.679,1.679,0,0,1-.525-1.225" transform="translate(-38.799 -9.463)" fill="#7982be"/>
    <path id="Path_21" data-name="Path 21" d="M221.964,55.947l-1.108,1.789q-2.237-2.042-3.6-2.042-2.684,0-5.737,5.133v11.24h-1.906V54.177h1.906v4.706h.078q3.208-5.057,6.262-5.056,1.75,0,4.1,2.12" transform="translate(-44.247 -11.362)" fill="#7982be"/>
    <path id="Path_22" data-name="Path 22" d="M230.965,45.78H229.04V42.513h1.925Zm0,23.9H229.04V51.789h1.925Z" transform="translate(-48.347 -8.974)" fill="#7982be"/>
    <path id="Path_23" data-name="Path 23" d="M251.554,54.7v2.12a11.71,11.71,0,0,0-4.647-1.128,6.238,6.238,0,0,0-4.868,2.081,7.734,7.734,0,0,0-1.88,5.406,7.5,7.5,0,0,0,1.88,5.377,6.559,6.559,0,0,0,5.024,1.994,12.772,12.772,0,0,0,4.823-1.031v1.984a15.522,15.522,0,0,1-4.978.914,8.441,8.441,0,0,1-6.346-2.489,8.946,8.946,0,0,1-2.424-6.534,9.83,9.83,0,0,1,2.437-6.894,8.071,8.071,0,0,1,6.236-2.674,15.414,15.414,0,0,1,4.745.875" transform="translate(-50.268 -11.363)" fill="#7982be"/>
    <path id="Path_24" data-name="Path 24" d="M263.105,42.513V54.9h.078a6.759,6.759,0,0,1,5.892-3.462,6.3,6.3,0,0,1,4.842,1.945,7.545,7.545,0,0,1,1.809,5.348V69.68H273.82V59.49q0-6.183-4.861-6.183-3.481,0-5.854,3.831V69.68H261.2V42.513Z" transform="translate(-55.136 -8.974)" fill="#7982be"/>
    <path id="Path_25" data-name="Path 25" d="M288.865,42.513V54.9h.078a6.758,6.758,0,0,1,5.892-3.462,6.294,6.294,0,0,1,4.841,1.945,7.545,7.545,0,0,1,1.809,5.348V69.68h-1.906V59.49q0-6.183-4.861-6.183-3.48,0-5.853,3.831V69.68h-1.907V42.513Z" transform="translate(-60.573 -8.974)" fill="#7982be"/>
    <path id="Path_26" data-name="Path 26" d="M320.828,53.827a8.7,8.7,0,0,1,6.489,2.664,9.788,9.788,0,0,1,0,13.273,9.275,9.275,0,0,1-12.99,0,9.717,9.717,0,0,1,0-13.273,8.73,8.73,0,0,1,6.5-2.664m0,16.724a6.689,6.689,0,0,0,5.036-2.11,7.946,7.946,0,0,0-.013-10.608,7.036,7.036,0,0,0-10.086-.02,7.954,7.954,0,0,0,0,10.627,6.725,6.725,0,0,0,5.062,2.11" transform="translate(-65.797 -11.362)" fill="#7982be"/>
    <path id="Path_27" data-name="Path 27" d="M353.488,55.947l-1.108,1.789q-2.237-2.042-3.6-2.042-2.684,0-5.737,5.133v11.24h-1.906V54.177h1.906v4.706h.078q3.208-5.057,6.262-5.056,1.75,0,4.1,2.12" transform="translate(-72.01 -11.362)" fill="#7982be"/>
    <path id="Path_28" data-name="Path 28" d="M362.075,54.177v3.111h.078a6.759,6.759,0,0,1,5.892-3.462,6.3,6.3,0,0,1,4.842,1.945,7.6,7.6,0,0,1,1.809,5.387v10.91H372.79V61.878q0-6.183-4.861-6.183-3.56,0-5.854,3.831V72.068h-1.906V54.177Z" transform="translate(-76.027 -11.362)" fill="#7982be"/>
    <path id="Path_29" data-name="Path 29" d="M460.22,37.152a14.664,14.664,0,1,0-20.737,0,14.663,14.663,0,0,0,20.737,0" transform="translate(-91.863 -2.558)" fill="#7982be"/>
    <path id="Path_30" data-name="Path 30" d="M488,2.308c-4.091-6.246-11.092,2.551-13.27,5.666s-1.4,7.2-.732,8.975a20.75,20.75,0,0,1-14.527,27.458c-.607.147-.817.447-1.22.967s-.629.807-.629,1.214V62.3s.349,1.395.8,1.709.7.646,1.434.541A40.5,40.5,0,0,0,488,2.308" transform="translate(-96.599 -0.025)" fill="#f27c00"/>
    <path id="Path_31" data-name="Path 31" d="M410.273,2.308c4.091-6.246,11.092,2.551,13.27,5.666s1.4,7.2.732,8.975A20.749,20.749,0,0,0,438.8,44.406c.606.147.816.447,1.22.967s.629.807.629,1.214V62.3s-.349,1.395-.8,1.709-.7.646-1.434.541A40.5,40.5,0,0,1,410.273,2.308" transform="translate(-85.211 -0.025)" fill="#f27c00"/>
  </g>
</svg>
