<svg xmlns="http://www.w3.org/2000/svg" width="79.536" height="64.453" viewBox="0 0 79.536 64.453">
  <path id="Path_35" data-name="Path 35" d="M460.22,37.152a14.664,14.664,0,1,0-20.737,0,14.663,14.663,0,0,0,20.737,0" transform="translate(-410.327 -2.653)" fill="#7982be"/>
  <path id="Path_36" data-name="Path 36" d="M488,2.308c-4.091-6.246-11.092,2.551-13.27,5.666s-1.4,7.2-.732,8.975a20.75,20.75,0,0,1-14.527,27.458c-.607.147-.817.447-1.22.967s-.629.807-.629,1.214V62.3s.349,1.395.8,1.709.7.646,1.434.541A40.5,40.5,0,0,0,488,2.308" transform="translate(-415.063 -0.12)" fill="#f27c00"/>
  <path id="Path_37" data-name="Path 37" d="M410.273,2.308c4.091-6.246,11.092,2.551,13.27,5.666s1.4,7.2.732,8.975A20.749,20.749,0,0,0,438.8,44.406c.606.147.816.447,1.22.967s.629.807.629,1.214V62.3s-.349,1.395-.8,1.709-.7.646-1.434.541A40.5,40.5,0,0,1,410.273,2.308" transform="translate(-403.675 -0.12)" fill="#f27c00"/>
</svg>
